<?xml version="1.0" encoding="UTF-8"?><svg id="tanh_4_lut_grp" xmlns="http://www.w3.org/2000/svg" viewBox="0 0 810.46 669.87"><defs><style>.cls-1{fill:none;stroke:#ff7e67;stroke-miterlimit:10;stroke-width:4px;}</style></defs><g id="fundamental"><path class="cls-1" d="M83.14,496.97s3.52-439.57,24.38-439.57,24.37,450.62,24.37,450.62"/></g><g id="overtones"><path class="cls-1" d="M336.01,504.15s-5.52-357.51,5.46-357.51,10.99,358.6,10.99,358.6"/><path class="cls-1" d="M444.81,504.15s-3.54-259.16,6.09-259.16,3.05,259.16,3.05,259.16"/><path class="cls-1" d="M519.95,504.15s-6.37-149.89,0-149.89,6.37,150.98,6.37,150.98"/><path class="cls-1" d="M572.77,506.34s-4.55-36.42,0-36.42,4.55,35.33,4.55,35.33"/></g><g id="table-sine-overtone"><path d="M391.6,29.97c104-.04,209.07-.92,312.88.64,32.58.49,40.88,27.41,42,54.56,1.45,34.98.43,71.42.83,106.56.85,74.43,1.94,149.35.07,223.81-.8,31.95,5.52,88.05-39.26,91.59-22.5,1.78-46.13-.84-68.58-.98-138.35-.84-276.76-1.02-415.21-.9-40.41-1.41-86.43,5.27-126.33,1.88-21.44-1.82-35.41-20.17-35.65-41.14-1.46-130.43-.11-262.05-.05-392.52.01-25.68,16.19-42.47,42.02-42.91,95.36-1.64,191.78-.55,287.27-.59ZM101.02,34.49c-23.2,2.5-33.25,18.82-35.05,40.76v390.83c4.44,40.94,37.73,37.64,69.03,37.38,177.55-1.5,354.95-1.36,532.52,0,39.58.3,71.84,8.89,75.35-43.69,4.85-72.53-5.54-149.16,0-222-2.88-51.83,3.68-107.54,0-158.91-1.75-24.35-12.61-43.81-39.26-44.67l-602.6.3Z"/><path d="M675.34,530.31c1.5.94,4.31-.58,6.66,1.08,8.53,6.07-3.88,26.8-11.23,17.54-4.24-5.35-1.04-16.09,3.94-20.17.78-.3.19,1.28.63,1.55ZM675.8,533.46c-7.34,2.18-4.59,22.11,3.88,12.01,4.09-4.88,4.03-14.36-3.88-12.01Z"/><path d="M655.3,546.8c1.8-.62,9.82,1.61,9.91,3.17.11,1.8-2.56.85-3.38.7-5.62-1.01-8.8-1.45-14.65-.26-.54-4,4.37-4.48,7.24-6.74,5.54-4.38,8.85-13.05-1.19-10.41-.59.15-2.56,4.56-4.24,2.72-3.03-3.32,10.67-9.78,13.14-1.84,1.94,6.24-4.02,8.29-6.83,12.66Z"/><path d="M688.69,527.86c2.26-.15,1.55-.23,1.78,1.36.63,4.28,1.01,8.75.93,13.08.35.48,8.57-7.93,9.92-2.72-1.64.07-7.65,3.25-7.22,4.96.61,2.08,7.13,3.22,7.22,3.62.61,2.68-.78,2.71-3.11,2.2-2.77-.6-4.51-3.14-6.82-4.47.12,2.12.1,4.77-2.72,4.51v-22.56Z"/><path d="M92.18,531.47c2.26-.15,1.55-.23,1.78,1.36.63,4.28,1.01,8.75.93,13.08.35.48,8.57-7.93,9.92-2.72-1.64.07-7.65,3.25-7.22,4.96.61,2.08,7.13,3.22,7.22,3.62.61,2.68-.78,2.71-3.11,2.2-2.77-.6-4.51-3.14-6.82-4.47.12,2.12.1,4.77-2.72,4.51v-22.56Z"/><path d="M401.72,648.33l-1.81.91-.91-13.09c-.71-.77-6.42,4.37-8.57,0-3.33-6.78,6.7-11.09,11.28-6.77v18.95ZM396.96,630.02c-9.28.99-3.71,10.44,2.93,1.17-1.02-1.4-1.34-1.34-2.93-1.17Z"/><path d="M473.01,627.14c-1.32,1.8-1.82,9.69,1.34,9.01,2.1-.72,5.98-11.59,8.58-9.02l-8.13,22.55c-1.69.57-2.44-.83-2.32-2.28.18-2.02,4.73-9.62,4.12-10.36-2.24,1.37-4.3,2.55-6.38.3l-.82-10.23h3.61Z"/><path d="M375.55,633.45c.55,6.38,4.62,5.18,9.16,4.19,1.19-.26,2.89-1.66,2.56.76-3.83,3.54-12.39,3.28-14.07-2.23-1.47-4.81,7.09-13.99,11.25-7.53,1.08,6.52-4.13,6.45-8.9,4.81Z"/><path d="M424.28,633.45c.55,6.38,4.62,5.18,9.16,4.19,1.19-.26,2.89-1.66,2.56.76-3.83,3.54-12.39,3.28-14.07-2.23-1.47-4.81,7.09-13.99,11.25-7.53,1.08,6.52-4.13,6.45-8.9,4.81Z"/><path d="M706.74,541.85c.04.24,1.09,2.37,1.35,2.25,2.46-3.11,5.97-5.88,8.38-1.15.93,1.83,2.84,11.17-.25,7.47-1.4-1.67-1.51-8.11-3.6-7.21-1.65.71-6.33,8.73-7.68,7.21l-.9-23.45c.84-.39,2.7.8,2.7,1.35,0,4.02-.55,9.84,0,13.54Z"/><path d="M110.23,545.46c.04.24,1.09,2.37,1.35,2.25,2.46-3.11,5.97-5.88,8.38-1.15.93,1.83,2.84,11.17-.25,7.47-1.4-1.67-1.51-8.11-3.6-7.21-1.65.71-6.33,8.73-7.68,7.21l-.9-23.45c.84-.39,2.7.8,2.7,1.35,0,4.02-.55,9.84,0,13.54Z"/><path d="M359.3,619l-5.67-.78c-2.88.79-3.81,7.1-3.26,9.73.92,1.09,9.58.02,8.93,3.69l-8.11-.9c-.36.36,1.02,11.08-1.8,8.12-.74-2.14-.41-5.75-1.07-7.54-.53-1.44-6.45-3.22.22-4.68-.23-3.58-.57-7.56,2.67-9.86,4.61-3.28,9.46.99,8.1,2.22Z"/><path d="M732.63,541.13c-1.9,2.14-6.45,4.27-7.84,7.47,3.12-.63,5.1-1.93,8.55-1.83,1.85.05,2.64-.59,2.28,1.83l-14.44,2.71c-1-5.32,5.22-6.49,7.22-10.36l-7.23.44v-2.7c2.1.64,16.32-3.04,11.45,2.44Z"/><path d="M136.39,541.4c1.9,1.83-5.73,7.68-6.96,8.76-.61.54-1.73-.05-1.15,2.06,3.07-.68,5.18-1.93,8.55-1.83,1.85.05,2.64-.59,2.28,1.83l-14.44,2.71c-.78-5.09,5.13-6.91,7.21-10.82l-7.22.89v-2.7s11.73-.9,11.73-.9Z"/><path d="M464.88,631.63c-2.42.88-1.45-1.63-2.37-1.83-3.23-.68-6.55,1.33-5.81,4.89.38,1.84,8.33,1.48,9.99,1.46,3.08,2.69-10.74,4.96-12.46-.63-2.33-7.57,11.14-13.75,10.66-3.89Z"/><polygon points="87.66 534.18 86.76 554.03 84.06 554.03 84.95 538.69 79.1 540.5 78.62 538.23 87.66 534.18"/><path d="M438.72,637.95v-9.93s2.7,0,2.7,0l.45,3.61c6.52-9.66,8.37-.86,9.04,6.32-1.79,3.41-3.03-4.36-3.22-4.91-2.45-7.04-5.02,5.43-8.96,4.9Z"/><path d="M417.96,627.13l.9,11.72c-2.32.38-2.76-1.96-2.71-3.61h-1.33c-7.43,7.8-9.69.71-8.58-7.22h2.7c-1.14,3.41-1.41,11.46,3.63,6.79,2.68-2.49,1.9-7.37,5.39-7.68Z"/><path d="M363.81,626.22v3.61c1.69-1.24,6.44-5.89,8.12-2.24,1.02,2.22-3.36.35-5.31,2.79-2.5,3.13-.94,5.91-1.92,9.38-3.7-1.39-3.13-8.77-2.7-12.2.16-1.24.68-2.83,1.8-1.34Z"/></g></svg>