<?xml version="1.0" encoding="UTF-8"?><svg id="tanh_4_lut_grp" xmlns="http://www.w3.org/2000/svg" viewBox="0 0 810.46 669.87"><defs><style>.cls-1{stroke:#ff7e67;}.cls-1,.cls-2{fill:none;stroke-miterlimit:10;stroke-width:3px;}.cls-2{stroke:#050505;}</style></defs><g id="tanh_vector"><path class="cls-2" d="M62.69,281.49c8.96-35.59,24.72-96.08,33.72-131.14.75-2.39,1.38-5.84,2.81-6.58.44-.03.88.61,1.38,1.9.39,1.02.81,2.44,1.29,4.23,6.76,27.09,19.48,81.7,27.19,112.21,1.13,3.83,2.22,6.25,3.4,7.94,1.15,1.69,2.66,2.93,4.21,4.23,2.61,2.12,5.85,5.31,9.22,7.38,2.29,1.43,4.6,2.81,6.61,4.62,3.43,2.76,6.45,6.95,10.71,7.78,11.81,3.06,18.51-11.7,25.67,4.88,1.92,3.7,3.24,7.82,6.72,8.96,3.96.16,6.75-5.21,10.47-6.47,3.2-1.42,6.29-.23,9.11-1,9.67-3.11,13.29-16.39,17.25-25.57,2.43-5.3,8.03-21.11,11.99-9.35,1.65,2.83,4.21,21.55,6.61,18.52,2.64-2.14,3.4-33.81,8.89-22.15,2.59,5.05,3.81,12.95,9.36,15.8,3.38,1.37,6.23-2.12,8.78,1.41.75.97,1.14,2.02,1.64,3.28,1.59,4.49,2.26,9.7,3.11,14.51.72,3.52,2.41,18.25,6.39,10.22,1.97-3.37,3.11-9.29,7.08-10.87,4.65-.34,8.02,12.61,12.07,14.82,1.21.84,2.59.8,3.77-.12,5.17-3.2,8.7-22.56,13.88-20.88.99.35,1.98,1.55,2.97,3.43,2.08,3.94,3.48,9.04,5.87,12.96,2.6,4.12,5.07,4.96,8.86,4.49,4.12-.86,9.3-7.07,14.61-5.48,3.73.82,8.1,3.68,11.46.67,4-2.89,5.44-11.83,6.68-17.05.74-3.01,1.49-8.2,3.26-9.55.51-.18.98.44,1.47,1.5.72,1.58,1.41,3.64,2.19,5.32,1.82,4.16,4.31,7.59,6.64,9.98,8.33,8.67,13.16-8.04,17.52-13.86.94-1.25,1.89-2.13,2.8-2.55,4.13-1.9,6.76,4.93,10.95,4.16,2.68-.38,4.47-3.1,6.84-4.11,6.25-2.58,10.14,16.89,13.07,20.15,5.09,8.49,13.28-4.96,15.84-9.8,1.47-2.99,2.65-4.62,4.03-.36,1.34,3.83,2.54,12.75,4.07,18.59,1.45,6.14,3.85,10.59,10.7,7.08,6.83-3.46,10.6.37,16.3,3.38,8.17,4.12,12.17-4.71,15.2-11.02,2.82-5.23,5.3-7.63,8.48-7.19,1.79.75,2.38,2.59,3.18,4.53,1.98,5.63,3.82,14.38,6.27,18.44.54.89,1.12,1.87,2.09,2.23,4.41.8,7.24-10.1,11.61-11.49,5.59-1.25,7.39,11.95,10.27,11.9,1.63-.29,1.87-1.94,2.92-4.64,2.03-6.44,2.82-14.39,6.11-20.44,2.3-3.92,4.57-2.49,7.63-5.2,3.54-3.15,5.4-8.2,7.58-12.27,2.47-4.94,4.19-3.14,5.18,1.07,1.52,5.88,2.42,17.87,3.69,22.74,3.41,12.4,5.1-23.1,9.99-20.27,2.6,1.79,5,9.75,6.49,14.05,3.13,8.03,5.64,21.29,11.97,26.52,1.72,1.33,3.39,1.78,5.34,2.66,2.09.97,3.8,2.2,5.8,3.86,3.09,2.25,5.96,6.35,10.14,6,7.87-1.57,10.22-22.32,15.88-3.46,1.59,5.07,3.42,12.48,5.2,16.36.87,1.76,1.76,3.66,3.47,4.58,2.24.97,3.28-.59,4.42-3.13.85-1.98,1.69-4.63,2.69-6.74,1.3-2.76,3.06-4.6,4.99-6.19,1.96-1.61,4.1-2.98,6.45-3.2,3.75-.31,7.69.29,11.16-1.5,6.29-3.41,11.5-8.48,15.1-16.01,4.81-9.06,7.72-20.74,11.38-29.92,6.01-16.91,10.51,3.78,13.62,11.97,4.25,14.48,10.8,28.23,19.15,40.85"/></g><g id="_4_lut_vector"><path class="cls-1" d="M63.49,270.77c1.51-1.08,4.49-3.56,5.56-3.72.58,0,.72.48.94.98.95,2.64,3.33,10.08,4.25,12.52.17.5.56.85,1.06.58,2.94-2.67,3.48.9,4.61,2.85.12.24.24.5.38.67.06.06.08,0,.1-.1,2.06-7.51,14.68-125.27,18.84-132.3,1.47.5,1.55,3.57,2.12,4.99.78,6.55,14.02,117.63,15.4,129.67.1.51-.03,1.1.54-.46.7-1.6,1.21-3.74,1.98-5.37,1.21-2.67,2.38.09,3.59-1.49,1.5-3.1,3.35-9.98,4.73-12.44.46-.45.82-.11,1.38.28,1.18.9,2.53,2.26,3.73,3.28,1.39,1.38,2.82,2.27,4.62,1.78,1.33-.3,2.48-.71,2.76.78,2.19,6.63,6,22.34,7.78,28.51.66,2.15,1.15,5.69,1.79,7.43.09.24.19.46.39.25,1.28-3.48,4.11-10.68,5.06-15.12.54-2.85,1.87-10.18,2.46-13.17.15-.88.71-1.65,1.67-1.42,1.25.26,1.8,1.56,1.83,2.76.3,3.2-.28,7.71.15,10.57.49,2.66,2.62,6.6,3.45,8.86,1.08,2.68,3.3-3.63,4.37-4.16,4.32-3.49,5.58,3.01,6.64,5.97.18.56.53,1.19.71.38,1.14-4.06,1.82-14.27,4.97-18.59,1.61-2.81,3.07,1.21,4.05,2.5,1.31,2.15,1.75,3.71,2.16,6.46.9,4.13,1.39,8.39,2.64,12.36.62,1.32,3.09,11.94,3.76,10.63,1.24-2.5,2.47-7.36,3.71-10.42.59-1.49,1.29-4.07,2.01-4.28.8-.08,1.15,1.16,1.71,1.56.77.62,1.26-.42,1.69-1.1,1.41-2.46,2.44-5.49,4.87-6.82,1.44-.98,3.34-2.04,4.67-.31,2.68,2.91,4.7,5.96,5.99,9.41.88,2.01,1.06.47,1.42-1.33.99-3.55,1.05-7.7,2.44-10.7,1.15-1.65,3.06-2.73,4.47-4.16,4.68-4.19,6.03-9.95,8.3-15.44.95-2.24,2.82.34,3.38-1.78.86-3.09,1.76-11.17,2.84-14.38.91-1.76,2.36-.74,2.57.83.9,4.23,3.47,16.4,4.2,19.85.64,2.91,1.04,8,1.76,10.31,1.3-6.08,3.47-23.74,4.84-30.41,1.7-10.13,1.47-6.72,5.61-.16,1.1,1.92,1.21,2.41,1.72,4.72.93,4.24,2,8.95,2.93,13.1.9,3.95,3.4,8.56,4.06,12.73.18,1.41-.03,4.36.33,4.53,3.09-4.75,5.2-10.74,7.42-15.98.15-.51.83-2.16,1.22-1.68,1.9,5.21,2.54,10.83,3.57,16.35.61,3.97,1.39,7.62,2.15,11.76.29,1.84,1.13,5.43,2.25,6.39.26.12.56-.02.9-.39.8-.91,1.44-2.17,2.12-3.2,1.38-2.2,2.19-4.74,3.06-7.51,1.12-3.25,1.94-5.59,2.56-8.99.69-2.67.58-8.18,3.56-2.99,1.47,2.6.57,7.54.81,10.77-.11,2.33.37,3.49,1.56,5.3.86.86,2.42,5.3,3.71,2.87.61-.52,1.93-6.21,3-4.18.28.42,6.3,15.21,6.93,12.69.65-3.77,2.17-21.3,3.1-25.73.51-.41,1.31.69,1.88.85.71.4,1.36-.15,1.7-.86.85-1.72,2.2-5.2,2.84-6.49.82-1.85,1.07.63,1.64,2.26,1.61,4.85,2.85,10.93,4.37,14.27,1.35,1.84,3.46,3.46,5.07,5.15,3.77,3.17,2.01,16.64,6.43,18.9.52.01.73-1.43,1.29-3.29,1.45-4.83,3.07-11.82,4.14-14.53.71-.69,2.24,1.63,3.01,2.27,2.75,2.64,3.76,5.61,6.34.98,1.73-2.37,3.35-5.1,6.16-5.25,2.08.99,2.8,4.04,4.58,5.51,1.22,1.15,2.89.99,4.49,1.69.84.29,1.68,1,2.34,1.45,1.54-3.54,4.63-26.71,6.46-35.24.11-.43.34.24.41.43.63,1.75,3.02,8.78,3.98,12.03.99,3.57,1.27,7.55,1.98,11.24.48,4.58,1.47-2.86,2.7-6.72.62-2.08,1.56-7.14,2.29-8,1.35,3.13,3.17,9.81,3.9,13.39.45,1.39.41,6.61,2.41,3.13,1.9-3.37,4.65-6.43,6.77-9.46,1.6-4.5,3.94-12.75,5.55-17.75.36-1.16.53-1.72.84-1.3,1.13,2.3,3.16,7.46,4.25,10.53,1.36,7.04,2.1,14.29,3.57,21.35.19,1.38,1.74,4.73,2.49,2.14,1.7-7.38,3.83-20.4,6.75-28.76.52-1.1,1.08-5.48,1.96-2.38,1.19,3.46,3.05,9.49,4.5,13.36.81,1.87,1.89,4.74,3.25,6.59,1.86,2.47,4.48,4.78,5.5,7.6.38.53,1.26,3.97,1.83,2.69.6-1.96,2.55-9.73,3.83-14.51,1.13-3.72.89-6.07,2.14-1.19,1.03,3.63,2.52,8.92,3.56,12.53.24.58.28,1.28.58.71.73-2.41,5.01-18.29,6.03-21.74.46-.75.53,3.16,1.3,6.67,1.96,10.2,4,27.95,5.38,30.85,3.54-2.3,8.15-7.51,11.86-9.72.54-.16.84.32,1.23,1.37,1.09,2.35,1.57,6.22,3.23,8.25.81.31,2.02-1.82,3.53-2.88,1.94-1.11,5.25-2.41,6.64-.48,1.29,2.68,2.45,6.31,3.57,9,1.07,2.94,1.13,1.7,2.01-.62,1.37-3.72,2.71-8.13,4.26-11.8.98-1.83,3.74-1.5,4.51-3.46,1.87-4.52,3.21-10.83,5.21-15.01,1.11,2,1.78,7.31,2.71,10.04.19.4.18.87.52,1.02,1.16-.46,1.59-2.86,2.4-3.67.29-.35.44-.21.56.37,1.07,6.87,2.3,14.29,3.33,21.3.44,1.04.49,7.89,1.66,5.82,1.14-2.01,4.84-9.36,6.07-11.54,1.34-2.54,2.09,5.52,3.08,3.99,1.52-4.05,5.99-18.34,6.86-20.57.16-.36.25-.32.37.04.51,2.38,3.64,16.11,4.61,20.31.86,2.15,3.4,4.97,4.68,6.54.22.19.44.53.72.37,1.05-3.49,3.01-18.74,3.97-23.5.39-2.2,2.28-5.14,3.62-6.58.9-.62,1.01.67,1.71,2.49.25.77.54,1.63.8,2.42.75,2.52,1.62,4.41,1.5,6.57.13,1.51-.26,7.8.4,5.05,1.69-6.54,5.45-21.79,7.64-27.43,1.32-2.99,3.99-9.25,4.83-11.03.61-1.21.81-.13,1.3,1.29,1.15,4.08,3.58,10.08,4.33,13.43.28,3.43.05,7.33.12,10.86,0,3.88.5,6.96,1.18,10.67.19.76.22,1.16.44.35,1.57-7.29,3.35-21.41,7.03-28.57.14-.23.21-.44.43-.5.2.02.34.29.42.52,2.79,9.3,5.37,19.78,10.68,28.23.79,1.23,1.51,2.63,2.51,3.65,1.2,1.28,3.06,1.79,4.19,2.62.66.49.94,1.03,1.08,1.9.47,3.19,1.65,12.45,2.05,15.22.36,2.31,1.05-1.87,1.47-2.7.61-1.64.85-3.53,1.77-4.97.71-.99,2.47.21,4.22,1.22,2.45,1.48,4.77,3.12,5.37,5.95.18.68.44,1,1.15.23.9-.99,1.77-2.59,2.81-3.46.31-.25.69-.19.91.13.93,2,2.68,6.35,3.37,8.94.64,2.16,1.54,5.79,2.27,7.06.84-2.88,1.72-7.61,2.38-10.92.68-3.32.96-6.59,2.59-9.35,1.09-1.8,2.19-3.98,3.29-5.7.35-.54.61-.82.83-.76.22.09.35.4.45.67.51,1.99,1.93,6.45,2.54,8.97,1.02,3.16,1.76,8.08,2.71,10.84.19.61.66,1.05,1.33.89,1.04-.19,2.12-1.01,3.13-1.23,1.35-.28,1.39,1.1,1.62,2.26.78,5.64,1.81,11.36,4.04,16.52,1.69-6.78,4.83-26.78,5.89-31.61.08-.34.15-.38.28.03.08.95.87,2.91,1.05,4.23,2.17,8.27,3.1,13.96,4.68,23.41.27,2.49,1.12,5.96,3.38,6.69,1.76-3.96,4.65-25.36,6.14-30.16.13-.2.33-.26.66-.21.64.09,1.76.75,2.76,1.08,1.03.39,1.9.05,2.43-.84,1.1-1.67,2.93-5.49,3.81-6.59.21-.23.41-.41.7-.33.79.5,1.61,2.14,2.15,3.09,1.26,2.4,2.25,3.71,1.94,6.86.11,3.67-.22,7.66.15,11.24.55,1.62,1.45,2.46,2.77,4.08,1.08,1.32,2.24,2.62,3.01,3.35.74.7,1.22,1.01,1.44.83,2.75-14.07,8.32-61.06,11.5-73.69.95.36,1.67,2.07,2.67,2.55,1.24.65,1.87-1.64,2.56-.76.79,1.46,1.23,3.54,1.79,5.19,1.67,5.77,3.35,11.45,3.59,17.32-.09,3.85-.22,6.77.69,10.68,3.22,12.08,3.33,25.13,6.91,37.29.31,1.14.6,1.33.91-.24.53-2.71,1.17-6.04,1.88-8.75.66-2.11,3.17-2.83,4.5-4.81,1.58-2.45,2.6-5.6,3.88-8.12"/></g><g id="Layer_1_Image"><path d="M727.72,36.17c7.35,4.58,13.37,12.23,16.36,20.34,3.58,9.71,2.85,16.87,3.09,26.77,2.78,114.35,3.74,228.76.85,343.18-.72,28.41,4.26,70.51-30.81,79.58-11.71,3.03-21.45,1.38-33.2,1.3-169.79-1.12-339.73-2.45-509.56-.48-23.35.27-47.72,1.54-71.01.96-24.78-.62-38.16-13.55-41.5-38.12V68.38c1.29-12.93,6.3-25.15,17.62-32.3,13.45-8.49,29.89-5.71,45.04-5.82,151.98-1.12,304.19-1.12,456.22-.48,34.88.15,69.78-.13,104.59.48,14.85.26,29.13-2.3,42.32,5.91ZM77,43.37c-10.48,10.63-12.33,29.94-12.19,44.25.77,74.84.66,149.68.52,224.64-.09,48.15-2.41,98.39-.52,146.4.75,19.06,5.22,35.3,24.85,42.34s49.41,3.26,70.38,2.98c158.84-2.11,318.14-1.82,476.89.52,23.08-1.29,47.16,1.82,70.09.48,31.12-1.81,37.89-28.76,37.66-55.48-.99-118.59-.88-237.53,0-356.12.07-9.41-.01-18.04-2.15-27.17-6.02-25.64-19.26-32.42-44.63-33.59H113.03c-11.42.4-27.58,2.18-36.03,10.75Z"/><path d="M682.06,532.8c-.58-.16-.99-1.51-.72-1.91.39-.59,12.32-1.31,13.96-.68,1.41,1.9-3.04,7.01-3.41,9.1l.48.95,1.81.32.55,1.53c-1.27,1.66-3.73.58-5,2.21-2.08,2.67.51,7.3-1.5,7.65-.6.1-2.33-1.67-2.5-2.24-.53-1.84,1.33-3.66.67-4.93l-3.62-2.16c.95-1.54,2.67-1.06,4.11-1.64,1.93-.78,4.82-6.06,5-8.2h-9.84Z"/><path d="M102.26,541.44l-.3,1.47c-2.07.78-3.94,2.06-5.81,3.21-1.14.7-.7,1.16.07,2.07,1.69,2,4.04,2.43,6.46,2.89l-.16,1.91c-3.69,1.91-6.35-2.17-9.14-3.87-1.7,1.51.66,4.64-2.66,4.11-1.14-.83-.13-3.98-.17-5.23-.1-3.38-.22-6.77-.3-10.16-.05-1.93-1.79-6,.96-6.73.52.4.83.8.95,1.46.32,1.82.11,11.39.95,12.01,3.34.02,5.16-4.26,9.14-3.14Z"/><path d="M396.73,628.41c1.6-.22,3.66.49,4.85,1.65.53,5.29-.29,10.56-.46,15.78-.07,2.06,1.79,4.78-1.92,3.87-1.49-1.06.5-10.15.31-12.29-1.51-1.45-2.65.56-3.97.88-6.44,1.53-8.32-5.94-2.5-8.73.64-.31,3.01-1.06,3.68-1.15ZM392.64,635.88c1.89,1.91,7.84-2.7,6.39-4.71-1.65-1.3-6.8.9-7,2.69l.61,2.03Z"/><path d="M711.57,539.99c-1.03-.04-7.14,3.22-7.21,3.62-.4,2.23,5.13,4.43,7.01,4.51,1.02,2.5-1.34,2.91-3.29,2.33-2.1-.62-3.76-4.62-6.58-3.74l-.23,3.37-1.71.25-.24-21.87c1.57-2.46,2.14,4.15,2.19,5.03.1,1.51-.46,7.1.43,7.74,2.09,1.52,8.42-6.53,9.63-1.24Z"/><path d="M717.33,543.6l1.19.72c3.19-3.39,6.2-6.42,8.51-.34.39,1.04,1.65,5.82.87,6.36l-1.43.21c-1.12-1.49-1.33-6.57-3.16-6.73-2.9.72-4.52,4.13-5.97,6.54-.87.56-1.68.02-2.17-.75l-.7-21.81,1.17-.74c.38.08,1.69,2.82,1.69,3.12v13.44Z"/><path d="M472.64,627.84c.64.64-2.99,10.73,2.78,8.53,1.39-1,4.77-8,5.36-8.31.52-.27,1.06-.33,1.63-.19.55.21.76.61.8,1.17s-3.48,7.38-4.09,8.89c-1.45,3.63-3.03,8.19-3.62,11.98l-2.32-.06c-.19-.46-.49-1.05-.42-1.54.18-1.38,4.76-9.8,4.19-10.39-2.67.76-3.66,2.94-5.96-.04-1.62-2.1-2.78-10.95,1.64-10.04Z"/><path d="M350.9,628.68l8.51,2.05v1.42s-7.7-.27-7.7-.27c-1.41,1.01.44,7.07.03,7.47l-1.62-.05c-1.49-.51-.88-6.17-1.82-7.78s-5.94-2.43-.12-4.14c.1-4.77.88-10.63,6.81-10.96,1.4-.08,3.84.83,4.24,2.26.81,2.95-2.9.11-3.87.09-4.11-.1-5.62,6.81-4.45,9.91Z"/><path d="M107.5,530.43c1.06.65.84,14.23,1.23,16.3l1.41.43c2.25-3.11,5.6-6,7.72-.92.28.66,1.94,6.94,1.68,7.2-.23.23-1.7,0-2.17-.47-1.8-1.84-.75-9.86-5.82-4.65-.8.82-3.7,6.9-5.22,4.65l-.23-22.58,1.4.03Z"/><path d="M126.25,551.52c.37.29,7.32-2.06,8.88-1.95,2.27.15,2.48,2.16.01,2.46-2.75.33-3.65.83-5.9,1.29-2,.41-8.95,2.26-6.37-2.06.74-1.23,7.2-6.63,7.21-7.17-1.65-1.75-3.68,1.05-5.96.73-1.07-.15-2.19-1.15-1.26-2.2.58-.65,10.62-1.77,11.08-1.44.51.37.55.87.49,1.45-.18,1.6-8.96,8.27-8.17,8.89Z"/><path d="M735.56,548.64c3.27-.94,6.63-2.12,10.07-1.92l-.79,2.33c-2.68-.63-4.69.97-6.77,1.39-1.04.21-5.19.99-5.74.73-1.18-.55-1.41-1.35-.86-2.53.5-1.08,8.43-7.27,7.43-8.16l-7.2.96.21-1.95,9.65-1.34c.84.02,2.62.79,1.91,1.87l-7.49,6.92-.45,1.71Z"/><path d="M435.7,638.4c1.34,1.99-3.32,2.79-4.54,2.89-7.63.62-12.15-4.1-6.97-10.82,1.87-2.42,4.19-3.46,7.34-2.54,3.36.98,2.24,6.46-1.37,7.07-1.71.29-4.59-.53-5.21-.4-2.41.51,1.39,4.28,2.94,4.64,2.18.51,7.22-1.74,7.81-.85ZM426.72,633c1.41,1.18,4.17-.06,4.47-1.81-.99-2.59-3.64-1.3-5.03.32-.08.32.29,1.28.55,1.5Z"/><path d="M387.24,638.4c.25,3.36-7.06,3.28-9.25,2.78s-5.06-3.83-4.57-6.26c.87-4.35,4.97-8.34,9.65-6.98,3.46,1.01,2.18,6.65-1.31,7.12-2.17.29-6.83-1.67-5.83,1.44,1.46,4.51,8.14,1.99,11.31,1.9ZM378.21,633.05c1.08.69,4.13-.1,4.59-1.6-.82-4.06-6.92.11-4.59,1.6Z"/><path d="M677.51,530.88v18.48c0,1.42-1.79,1.34-2.88,1.2.08-3.12-.09-6.26-.02-9.38.04-1.72,1.02-3.26.25-5.02-.96-2.19-3.32.99-4.78,1.01-2.85.03-1.4-1.76.08-2.84,1.77-1.29,5.26-3.16,7.35-3.45Z"/><path d="M85.45,533.77c1.36.93-.65,15.89.02,18.47-.15,1.55-1.68,1.22-2.88,1.2l.48-14.88c-2.56-.57-3.34,2.13-5.98,1.45-.65-.09-.27-2.21.51-2.35,1.41-.37,6.97-4.48,7.84-3.88Z"/><path d="M416.03,636c-.75-.7-4.13,4.52-7.18,3.11-3.43-1.58-4.16-8.56-.79-10.29,2.39,1.42-.17,3.25.39,5.86.23,1.05,1.22,2.48,2.43,2.21,1.55-.23,3.6-3.55,4.22-4.95.42-.97.43-4.46,2.12-4.1,1.34.28.09,9.06,2.17,10.78-2.23,2.14-3.31-.38-3.36-2.63Z"/><path d="M648.37,534.85c1.99-.53,4.94-3.23,6.56-3.77.62-.21,1.27-.42,1.72.26.76,3.93-.04,7.9-.28,11.76-.15,2.35,1.26,9.86-2.82,6.68l.85-13.27-1.53-1.24c-1.76,1.57-6.24,3.52-4.51-.42Z"/><path d="M466.17,636.96l.5.97c-.48,2.22-7.93,1.73-9.65.99-2.73-1.17-3.93-4.25-2.54-6.94.22-.42,3.14-3.47,3.51-3.69,2.49-1.43,8.31-.12,7.44,3.1-.6,2.25-3.23-1.08-4.52-1.1-1.66-.03-4.61,2.33-4.56,4.04.02.82,2.1,2.63,2.63,2.63h7.2Z"/><path d="M451.05,639.36c-3.34.69-2.4-7.41-4.55-7.59-2.7.37-4.32,5.66-5.51,6.4-3.39,2.1-1.24-7.44-1.45-8.89h1.91s.72,2.87.72,2.87l4.8-4.33c3.11-.01,3.8,9.25,4.08,11.53Z"/><path d="M371.86,627.88v1.37c-3.29.25-6.35,1.97-6.67,5.61-.15,1.69,1.14,3.35-.23,4.53-2.72,2.33-2.1-4.99-2.19-6.03-.19-2.04-1.99-5.42.72-6.01,2.05,3.9,1.34,2.08,3.36.95,1.77-.98,3.08-1.29,5.01-.44Z"/><path d="M662.22,551.46l-.33-3.32,2.66-.73c2.57,2,.56,4.71-2.33,4.04Z"/></g></svg>